<svg viewBox="0 0 11 20" xmlns="http://www.w3.org/2000/svg" xmlns:xlink="http://www.w3.org/1999/xlink" width="11.000000" height="20.000000" fill="none" customFrame="#000000">
	<path id="Path" d="M11 0L8 0C5.23858 4.44089e-16 3 2.23858 3 5L3 8L0 8L0 12L3 12L3 20L7 20L7 12L10 12L11 8L7 8L7 5C7 4.44772 7.44772 4 8 4L11 4L11 0Z" fill="rgb(255,255,255)" fill-rule="evenodd" />
	<path id="Path" d="M8 0C5.23858 4.44089e-16 3 2.23858 3 5L3 8L0 8L0 12L3 12L3 20L7 20L7 12L10 12L11 8L7 8L7 5C7 4.44772 7.44772 4 8 4L11 4L11 0L8 0Z" fill-rule="evenodd" stroke="rgb(255,255,255)" stroke-opacity="0" stroke-linecap="round" stroke-linejoin="round" stroke-width="0" />
</svg>
