<svg viewBox="0 0 20 16.3126" xmlns="http://www.w3.org/2000/svg" xmlns:xlink="http://www.w3.org/1999/xlink" width="20.000000" height="16.312622" fill="none" customFrame="#000000">
	<g id="twitter">
		<path id="Path" d="M20 0.00932958C19.1294 0.6234 18.1656 1.09307 17.1455 1.40024C16.024 0.110728 14.2167 -0.341476 12.6201 0.267924C11.0234 0.877323 9.97709 2.41869 10 4.12751L10 5.0366C6.75515 5.12074 3.68366 3.57476 1.81818 0.91842C1.81818 0.91842 -1.81818 9.10024 6.36364 12.7366C4.49139 14.0075 2.26105 14.6447 0 14.5548C8.18182 19.1002 18.1818 14.5548 18.1818 4.10024C18.181 3.84701 18.1566 3.59442 18.1091 3.34569C19.0369 2.43069 19.6917 1.27543 20 0.00932958Z" fill="rgb(255,255,255)" fill-rule="evenodd" />
		<path id="Path" d="M17.1455 1.40024C16.024 0.110728 14.2167 -0.341476 12.6201 0.267924C11.0234 0.877323 9.97709 2.41869 10 4.12751L10 5.0366C6.75515 5.12074 3.68366 3.57476 1.81818 0.91842C1.81818 0.91842 -1.81818 9.10024 6.36364 12.7366C4.49139 14.0075 2.26105 14.6447 0 14.5548C8.18182 19.1002 18.1818 14.5548 18.1818 4.10024C18.181 3.84701 18.1566 3.59442 18.1091 3.34569C19.0369 2.43069 19.6917 1.27543 20 0.00932958C19.1294 0.6234 18.1656 1.09307 17.1455 1.40024Z" fill-rule="evenodd" stroke="rgb(0,0,0)" stroke-opacity="0" stroke-linecap="round" stroke-linejoin="round" stroke-width="0" />
	</g>
</svg>
